<?xml version="1.0" encoding="UTF-8" standalone="no"?>
<svg
   xmlns:dc="http://purl.org/dc/elements/1.1/"
   xmlns:cc="http://creativecommons.org/ns#"
   xmlns:rdf="http://www.w3.org/1999/02/22-rdf-syntax-ns#"
   xmlns:svg="http://www.w3.org/2000/svg"
   xmlns="http://www.w3.org/2000/svg"
   xmlns:sodipodi="http://sodipodi.sourceforge.net/DTD/sodipodi-0.dtd"
   xmlns:inkscape="http://www.inkscape.org/namespaces/inkscape"
   aria-hidden="true"
   focusable="false"
   data-prefix="fas"
   data-icon="flag-checkered"
   class="svg-inline--fa fa-flag-checkered"
   role="img"
   viewBox="0 0 576 512"
   version="1.1"
   id="svg4"
   sodipodi:docname="flag-checkered-solid_2.svg"
   inkscape:version="1.0.1 (3bc2e813f5, 2020-09-07)">
  <metadata
     id="metadata10">
    <rdf:RDF>
      <cc:Work
         rdf:about="">
        <dc:format>image/svg+xml</dc:format>
        <dc:type
           rdf:resource="http://purl.org/dc/dcmitype/StillImage" />
        <dc:title></dc:title>
      </cc:Work>
    </rdf:RDF>
  </metadata>
  <defs
     id="defs8" />
  <sodipodi:namedview
     pagecolor="#ffffff"
     bordercolor="#666666"
     borderopacity="1"
     objecttolerance="10"
     gridtolerance="10"
     guidetolerance="10"
     inkscape:pageopacity="0"
     inkscape:pageshadow="2"
     inkscape:window-width="2560"
     inkscape:window-height="1367"
     id="namedview6"
     showgrid="false"
     inkscape:zoom="1.9166667"
     inkscape:cx="435.3913"
     inkscape:cy="255.47826"
     inkscape:window-x="-9"
     inkscape:window-y="-9"
     inkscape:window-maximized="1"
     inkscape:current-layer="svg4" />
  <path
     fill="currentColor"
     d="M509.5 .0234c-6.145 0-12.53 1.344-18.64 4.227c-44.11 20.86-76.81 27.94-104.1 27.94c-57.89 0-91.53-31.86-158.2-31.87C195 .3203 153.3 8.324 96 32.38V32c0-17.75-14.25-32-32-32S32 14.25 32 32L31.96 496c0 8.75 7.25 16 16 16H80C88.75 512 96 504.8 96 496V384c51.74-23.86 92.71-31.82 128.3-31.82c71.09 0 120.6 31.78 191.7 31.78c30.81 0 65.67-5.969 108.1-23.09C536.3 355.9 544 344.4 544 332.1V30.74C544 12.01 527.8 .0234 509.5 .0234zM480 141.8c-31.99 14.04-57.81 20.59-80 22.49v80.21c25.44-1.477 51.59-6.953 80-17.34V308.9c-22.83 7.441-43.93 11.08-64.03 11.08c-5.447 0-10.71-.4258-15.97-.8906V244.5c-4.436 .2578-8.893 .6523-13.29 .6523c-25.82 0-47.35-4.547-66.71-10.08v66.91c-23.81-6.055-50.17-11.41-80-12.98V213.1C236.2 213.7 232.5 213.3 228.5 213.3C208.8 213.3 185.1 217.7 160 225.1v69.1C139.2 299.4 117.9 305.8 96 314.4V250.7l24.77-10.39C134.8 234.5 147.6 229.9 160 225.1V143.4C140.9 148.5 120.1 155.2 96 165.3V101.8l24.77-10.39C134.8 85.52 147.6 80.97 160 77.02v66.41c26.39-6.953 49.09-10.17 68.48-10.16c4.072 0 7.676 .4453 11.52 .668V65.03C258.6 66.6 274.4 71.55 293.2 77.83C301.7 80.63 310.7 83.45 320 86.12v66.07c20.79 6.84 41.45 12.96 66.71 12.96c4.207 0 8.781-.4766 13.29-.8594V95.54c25.44-1.477 51.59-6.953 80-17.34V141.8zM240 133.9v80.04c18.61 1.57 34.37 6.523 53.23 12.8C301.7 229.6 310.7 232.4 320 235.1V152.2C296.1 144.3 271.6 135.8 240 133.9z"
     id="path2" />
  <path
     style="fill:#ffffff;stroke:#000000;stroke-width:0.521739;fill-opacity:1"
     d="m 96.003545,133.51413 0.0035,-31.42717 16.561675,-6.893563 c 17.69908,-7.366988 27.74972,-11.246783 39.65251,-15.306848 l 7.43867,-2.537343 -0.13432,32.953194 -0.13432,32.95319 -6.26087,1.74166 c -8.64138,2.40387 -21.41289,6.47332 -31.03491,9.88882 -7.00413,2.48624 -11.36429,4.1595 -23.617263,9.06338 L 96,164.9413 96.0035,133.51413 Z"
     id="path835" />
  <path
     style="fill:#ffffff;fill-opacity:1;stroke:#000000;stroke-width:0.521739"
     d="m 96.521739,133.18875 v -30.72429 l 12.875941,-5.330506 c 21.398,-8.858555 47.43606,-18.786128 49.27229,-18.786128 0.26116,0 0.46046,13.945651 0.46046,32.218754 v 32.21876 l -6.3913,1.77827 c -11.22466,3.12305 -31.05712,9.77122 -43.65307,14.63321 -6.72006,2.59392 -12.296146,4.71622 -12.391305,4.71622 -0.09516,0 -0.173016,-13.82593 -0.173016,-30.72429 z"
     id="path837" />
  <path
     style="fill:#ffffff;fill-opacity:1;stroke:#000000;stroke-width:0.521739"
     d="m 160.17391,184.04446 v -40.39032 l 8.73913,-2.10054 c 15.7174,-3.77785 30.18224,-6.18722 44.21739,-7.36519 7.03611,-0.59053 19.97886,-0.69682 24.13044,-0.19816 L 240,134.31926 v 39.23901 39.23901 l -12.13043,0.30881 c -18.59667,0.47342 -36.68719,3.2715 -57.99341,8.9699 -4.85072,1.29734 -9.01811,2.35879 -9.26087,2.35879 -0.24276,0 -0.44138,-18.17564 -0.44138,-40.39032 z"
     id="path839" />
  <path
     style="fill:#ffffff;fill-opacity:1;stroke:#000000;stroke-width:0.521739"
     d="m 96.126423,282.47509 0.134447,-31.54398 14.81524,-6.2172 c 8.14838,-3.41946 21.88316,-8.93681 30.52174,-12.26078 8.63857,-3.32398 16.23644,-6.24796 16.88416,-6.49774 l 1.17766,-0.45415 -0.13418,34.23824 -0.13419,34.23823 -2.34782,0.65625 c -1.29131,0.36093 -5.98696,1.63777 -10.43478,2.83741 -12.6188,3.40346 -29.02661,8.59339 -40.30836,12.74986 l -10.308363,3.79785 z"
     id="path841" />
  <path
     style="fill:#ffffff;fill-opacity:1;stroke:#000000;stroke-width:0.521739"
     d="m 316.43478,300.83248 c -1.43478,-0.39952 -7.30435,-1.77563 -13.04348,-3.05804 -18.18595,-4.06366 -36.52604,-6.94706 -51.65217,-8.1207 -4.01739,-0.31171 -8.30217,-0.68875 -9.52174,-0.83787 L 240,288.54476 v -37.17807 -37.17807 l 3.78261,0.43869 c 12.67761,1.47032 25.20156,4.57823 47.60869,11.81446 8.89566,2.87279 18.87392,6.03362 22.17392,7.02406 l 6,1.8008 0.13429,33.19277 c 0.0739,18.25602 -0.0435,33.17178 -0.26087,33.14612 -0.21734,-0.0257 -1.56907,-0.37353 -3.00386,-0.77304 z"
     id="path843" />
  <path
     style="fill:#ffffff;fill-opacity:1;stroke:#000000;stroke-width:0.521739"
     d="m 315.91304,150.54925 c -16.06824,-5.65846 -38.69447,-11.81206 -51.45035,-13.99283 -6.50186,-1.11156 -21.10952,-2.90425 -23.66524,-2.90425 C 240.09012,133.65217 240,129.7872 240,99.452353 V 65.252532 l 3.26087,0.343373 c 11.18535,1.177829 25.14699,4.532893 43.38259,10.425087 6.6287,2.141835 16.80654,5.350879 22.61741,7.131209 l 10.56522,3.236963 V 119.1511 c 0,18.01907 -0.0587,32.74447 -0.13044,32.72311 -0.0717,-0.0213 -1.77391,-0.61759 -3.78261,-1.32496 z"
     id="path845" />
  <path
     style="fill:#ffffff;fill-opacity:1;stroke:#000000;stroke-width:0.521739"
     d="m 372,244.42339 c -14.98499,-1.12916 -34.59571,-4.66942 -48.89968,-8.8277 l -2.75249,-0.80017 v -40.9195 c 0,-29.75488 0.15878,-40.9195 0.58196,-40.9195 0.32008,0 3.54834,0.95417 7.17391,2.12037 14.07221,4.52647 28.74829,7.85696 41.54847,9.42875 5.83751,0.71681 25.02167,0.91329 28.04348,0.28722 l 1.95652,-0.40536 v 39.86236 39.86236 l -3.20696,0.33519 c -3.18005,0.33239 -19.93391,0.31592 -24.44521,-0.024 z"
     id="path847" />
  <path
     style="fill:#ffffff;fill-opacity:1;stroke:#000000;stroke-width:0.521739"
     d="M 400.17391,129.79991 V 95.565217 h 2.37037 c 3.64754,0 16.36969,-1.489903 24.60101,-2.881048 14.58391,-2.464772 30.09896,-6.409677 45.0069,-11.443591 3.86196,-1.304057 7.20762,-2.371013 7.43478,-2.371013 0.22717,0 0.41303,14.07597 0.41303,31.279935 v 31.27993 l -2.47826,1.10366 c -23.62771,10.52231 -53.28687,19.01414 -73.82609,21.13744 l -3.52174,0.36407 z"
     id="path849" />
  <path
     style="fill:#ffffff;fill-opacity:1;stroke:#000000;stroke-width:0.521739"
     d="m 410.08696,319.59739 c -1.29131,-0.10651 -4.05,-0.33388 -6.13044,-0.50526 l -3.78261,-0.31159 v -36.99897 c 0,-20.34943 0.19708,-36.99896 0.43794,-36.99896 0.24087,0 4.17348,-0.35494 8.73913,-0.78875 19.68641,-1.87052 39.69186,-6.17848 60.34685,-12.99505 4.66185,-1.53851 8.88695,-2.96557 9.38913,-3.17126 0.86493,-0.35427 0.91304,1.76013 0.91304,40.12954 v 40.50352 l -1.43478,0.54677 c -5.26119,2.00493 -22.96349,6.42579 -31.95652,7.98061 -10.62169,1.8364 -29.52183,3.18677 -36.52174,2.6094 z"
     id="path851" />
</svg>
