{
    "asset" : {
        "generator" : "Khronos glTF Blender I/O v1.7.33",
        "version" : "2.0"
    },
    "scene" : 0,
    "scenes" : [
        {
            "name" : "Scene",
            "nodes" : [
                0,
                1,
                2,
                3,
                4
            ]
        }
    ],
    "nodes" : [
        {
            "mesh" : 0,
            "name" : "Track without solid"
        },
        {
            "mesh" : 1,
            "name" : "Road"
        },
        {
            "mesh" : 2,
            "name" : "Track Solid"
        },
        {
            "name" : "Path as Mesh"
        },
        {
            "name" : "Path"
        }
    ],
    "materials" : [
        {
            "doubleSided" : true,
            "name" : "Material.002",
            "pbrMetallicRoughness" : {
                "metallicFactor" : 0,
                "roughnessFactor" : 0.5
            }
        }
    ],
    "meshes" : [
        {
            "name" : "Plane.008",
            "primitives" : [
                {
                    "attributes" : {
                        "POSITION" : 0,
                        "NORMAL" : 1,
                        "TEXCOORD_0" : 2
                    },
                    "indices" : 3,
                    "material" : 0
                }
            ]
        },
        {
            "name" : "Plane.001",
            "primitives" : [
                {
                    "attributes" : {
                        "POSITION" : 4,
                        "NORMAL" : 5,
                        "TEXCOORD_0" : 6
                    },
                    "indices" : 7,
                    "material" : 0
                }
            ]
        },
        {
            "name" : "Plane.008",
            "primitives" : [
                {
                    "attributes" : {
                        "POSITION" : 8,
                        "NORMAL" : 9,
                        "TEXCOORD_0" : 10
                    },
                    "indices" : 11,
                    "material" : 0
                }
            ]
        }
    ],
    "accessors" : [
        {
            "bufferView" : 0,
            "componentType" : 5126,
            "count" : 2147,
            "max" : [
                19.726547241210938,
                5.499953269958496,
                36.592742919921875
            ],
            "min" : [
                -24.369613647460938,
                -0.06549662351608276,
                -72.36491394042969
            ],
            "type" : "VEC3"
        },
        {
            "bufferView" : 1,
            "componentType" : 5126,
            "count" : 2147,
            "type" : "VEC3"
        },
        {
            "bufferView" : 2,
            "componentType" : 5126,
            "count" : 2147,
            "type" : "VEC2"
        },
        {
            "bufferView" : 3,
            "componentType" : 5123,
            "count" : 3633,
            "type" : "SCALAR"
        },
        {
            "bufferView" : 4,
            "componentType" : 5126,
            "count" : 627,
            "max" : [
                18.726543426513672,
                4.999953269958496,
                35.59273910522461
            ],
            "min" : [
                -23.438539505004883,
                -0.06549662351608276,
                -71.40006256103516
            ],
            "type" : "VEC3"
        },
        {
            "bufferView" : 5,
            "componentType" : 5126,
            "count" : 627,
            "type" : "VEC3"
        },
        {
            "bufferView" : 6,
            "componentType" : 5126,
            "count" : 627,
            "type" : "VEC2"
        },
        {
            "bufferView" : 7,
            "componentType" : 5123,
            "count" : 1083,
            "type" : "SCALAR"
        },
        {
            "bufferView" : 8,
            "componentType" : 5126,
            "count" : 5552,
            "max" : [
                19.726547241210938,
                5.499953269958496,
                36.592742919921875
            ],
            "min" : [
                -24.369613647460938,
                -0.7227066159248352,
                -72.36491394042969
            ],
            "type" : "VEC3"
        },
        {
            "bufferView" : 9,
            "componentType" : 5126,
            "count" : 5552,
            "type" : "VEC3"
        },
        {
            "bufferView" : 10,
            "componentType" : 5126,
            "count" : 5552,
            "type" : "VEC2"
        },
        {
            "bufferView" : 11,
            "componentType" : 5123,
            "count" : 8736,
            "type" : "SCALAR"
        }
    ],
    "bufferViews" : [
        {
            "buffer" : 0,
            "byteLength" : 25764,
            "byteOffset" : 0
        },
        {
            "buffer" : 0,
            "byteLength" : 25764,
            "byteOffset" : 25764
        },
        {
            "buffer" : 0,
            "byteLength" : 17176,
            "byteOffset" : 51528
        },
        {
            "buffer" : 0,
            "byteLength" : 7266,
            "byteOffset" : 68704
        },
        {
            "buffer" : 0,
            "byteLength" : 7524,
            "byteOffset" : 75972
        },
        {
            "buffer" : 0,
            "byteLength" : 7524,
            "byteOffset" : 83496
        },
        {
            "buffer" : 0,
            "byteLength" : 5016,
            "byteOffset" : 91020
        },
        {
            "buffer" : 0,
            "byteLength" : 2166,
            "byteOffset" : 96036
        },
        {
            "buffer" : 0,
            "byteLength" : 66624,
            "byteOffset" : 98204
        },
        {
            "buffer" : 0,
            "byteLength" : 66624,
            "byteOffset" : 164828
        },
        {
            "buffer" : 0,
            "byteLength" : 44416,
            "byteOffset" : 231452
        },
        {
            "buffer" : 0,
            "byteLength" : 17472,
            "byteOffset" : 275868
        }
    ],
    "buffers" : [
        {
            "byteLength" : 293340,
            "uri" : "first.bin"
        }
    ]
}
