{
    "asset" : {
        "generator" : "Khronos glTF Blender I/O v1.7.33",
        "version" : "2.0"
    },
    "scene" : 0,
    "scenes" : [
        {
            "name" : "Scene",
            "nodes" : [
                0,
                1,
                2,
                3,
                4
            ]
        }
    ],
    "nodes" : [
        {
            "mesh" : 0,
            "name" : "Track without solid"
        },
        {
            "name" : "Path as Mesh"
        },
        {
            "name" : "Path"
        },
        {
            "mesh" : 1,
            "name" : "Track Solid"
        },
        {
            "mesh" : 2,
            "name" : "Road"
        }
    ],
    "materials" : [
        {
            "doubleSided" : true,
            "name" : "Material.002",
            "pbrMetallicRoughness" : {
                "metallicFactor" : 0,
                "roughnessFactor" : 0.5
            }
        },
        {
            "doubleSided" : true,
            "name" : "Material.006",
            "pbrMetallicRoughness" : {
                "metallicFactor" : 0,
                "roughnessFactor" : 0.5
            }
        },
        {
            "doubleSided" : true,
            "name" : "Material.007",
            "pbrMetallicRoughness" : {
                "metallicFactor" : 0,
                "roughnessFactor" : 0.5
            }
        }
    ],
    "meshes" : [
        {
            "name" : "Plane.008",
            "primitives" : [
                {
                    "attributes" : {
                        "POSITION" : 0,
                        "NORMAL" : 1,
                        "TEXCOORD_0" : 2
                    },
                    "indices" : 3,
                    "material" : 0
                }
            ]
        },
        {
            "name" : "Plane.005",
            "primitives" : [
                {
                    "attributes" : {
                        "POSITION" : 4,
                        "NORMAL" : 5,
                        "TEXCOORD_0" : 6
                    },
                    "indices" : 7,
                    "material" : 1
                }
            ]
        },
        {
            "name" : "Plane.007",
            "primitives" : [
                {
                    "attributes" : {
                        "POSITION" : 8,
                        "NORMAL" : 9,
                        "TEXCOORD_0" : 10
                    },
                    "indices" : 11,
                    "material" : 2
                }
            ]
        }
    ],
    "accessors" : [
        {
            "bufferView" : 0,
            "componentType" : 5126,
            "count" : 2097,
            "max" : [
                19.726547241210938,
                5.499953269958496,
                36.592742919921875
            ],
            "min" : [
                -24.369613647460938,
                -0.0394873172044754,
                -72.36491394042969
            ],
            "type" : "VEC3"
        },
        {
            "bufferView" : 1,
            "componentType" : 5126,
            "count" : 2097,
            "type" : "VEC3"
        },
        {
            "bufferView" : 2,
            "componentType" : 5126,
            "count" : 2097,
            "type" : "VEC2"
        },
        {
            "bufferView" : 3,
            "componentType" : 5123,
            "count" : 3522,
            "type" : "SCALAR"
        },
        {
            "bufferView" : 4,
            "componentType" : 5126,
            "count" : 5507,
            "max" : [
                19.726547241210938,
                5.499953269958496,
                36.592742919921875
            ],
            "min" : [
                -24.369613647460938,
                -0.7296527624130249,
                -72.36491394042969
            ],
            "type" : "VEC3"
        },
        {
            "bufferView" : 5,
            "componentType" : 5126,
            "count" : 5507,
            "type" : "VEC3"
        },
        {
            "bufferView" : 6,
            "componentType" : 5126,
            "count" : 5507,
            "type" : "VEC2"
        },
        {
            "bufferView" : 7,
            "componentType" : 5123,
            "count" : 8610,
            "type" : "SCALAR"
        },
        {
            "bufferView" : 8,
            "componentType" : 5126,
            "count" : 483,
            "max" : [
                18.726543426513672,
                4.999953269958496,
                35.59273910522461
            ],
            "min" : [
                -22.934329986572266,
                -0.0394873172044754,
                -71.40006256103516
            ],
            "type" : "VEC3"
        },
        {
            "bufferView" : 9,
            "componentType" : 5126,
            "count" : 483,
            "type" : "VEC3"
        },
        {
            "bufferView" : 10,
            "componentType" : 5126,
            "count" : 483,
            "type" : "VEC2"
        },
        {
            "bufferView" : 11,
            "componentType" : 5123,
            "count" : 891,
            "type" : "SCALAR"
        }
    ],
    "bufferViews" : [
        {
            "buffer" : 0,
            "byteLength" : 25164,
            "byteOffset" : 0
        },
        {
            "buffer" : 0,
            "byteLength" : 25164,
            "byteOffset" : 25164
        },
        {
            "buffer" : 0,
            "byteLength" : 16776,
            "byteOffset" : 50328
        },
        {
            "buffer" : 0,
            "byteLength" : 7044,
            "byteOffset" : 67104
        },
        {
            "buffer" : 0,
            "byteLength" : 66084,
            "byteOffset" : 74148
        },
        {
            "buffer" : 0,
            "byteLength" : 66084,
            "byteOffset" : 140232
        },
        {
            "buffer" : 0,
            "byteLength" : 44056,
            "byteOffset" : 206316
        },
        {
            "buffer" : 0,
            "byteLength" : 17220,
            "byteOffset" : 250372
        },
        {
            "buffer" : 0,
            "byteLength" : 5796,
            "byteOffset" : 267592
        },
        {
            "buffer" : 0,
            "byteLength" : 5796,
            "byteOffset" : 273388
        },
        {
            "buffer" : 0,
            "byteLength" : 3864,
            "byteOffset" : 279184
        },
        {
            "buffer" : 0,
            "byteLength" : 1782,
            "byteOffset" : 283048
        }
    ],
    "buffers" : [
        {
            "byteLength" : 284832,
            "uri" : "data:application/octet-stream;base64,"
        }
    ]
}
