{
    "asset" : {
        "generator" : "Khronos glTF Blender I/O v1.7.33",
        "version" : "2.0"
    },
    "scene" : 0,
    "scenes" : [
        {
            "name" : "Scene",
            "nodes" : [
                0,
                1,
                2,
                3,
                4,
                5,
                6,
                7
            ]
        }
    ],
    "nodes" : [
        {
            "mesh" : 0,
            "name" : "Track without solid"
        },
        {
            "name" : "Path as Mesh"
        },
        {
            "name" : "Path"
        },
        {
            "mesh" : 1,
            "name" : "Road"
        },
        {
            "mesh" : 2,
            "name" : "Track Solid"
        },
        {
            "mesh" : 3,
            "name" : "Water",
            "translation" : [
                0,
                -5.545346736907959,
                0
            ]
        },
        {
            "mesh" : 4,
            "name" : "Beach",
            "translation" : [
                0,
                0,
                -15.533190727233887
            ]
        },
        {
            "mesh" : 5,
            "name" : "Torus",
            "rotation" : [
                0.7300646901130676,
                -0.2160385549068451,
                -0.26659849286079407,
                0.5909807085990906
            ],
            "scale" : [
                32.95051956176758,
                32.950523376464844,
                32.95051956176758
            ],
            "translation" : [
                4.285942077636719,
                -6.486716270446777,
                -7.378174781799316
            ]
        }
    ],
    "materials" : [
        {
            "doubleSided" : true,
            "name" : "Material.002",
            "pbrMetallicRoughness" : {
                "metallicFactor" : 0,
                "roughnessFactor" : 0.5
            }
        },
        {
            "doubleSided" : true,
            "name" : "Material.007",
            "pbrMetallicRoughness" : {
                "metallicFactor" : 0,
                "roughnessFactor" : 0.5
            }
        },
        {
            "doubleSided" : true,
            "name" : "Material.008",
            "pbrMetallicRoughness" : {
                "baseColorFactor" : [
                    0.35469600558280945,
                    0.06123580411076546,
                    0.2935419976711273,
                    1
                ],
                "metallicFactor" : 0,
                "roughnessFactor" : 0.5
            }
        },
        {
            "doubleSided" : true,
            "name" : "Material",
            "pbrMetallicRoughness" : {
                "baseColorFactor" : [
                    0,
                    0.0020199052523821592,
                    0.8000000715255737,
                    1
                ],
                "metallicFactor" : 0,
                "roughnessFactor" : 0.39121338725090027
            }
        },
        {
            "doubleSided" : true,
            "name" : "Material.009",
            "pbrMetallicRoughness" : {
                "baseColorFactor" : [
                    0.8000000715255737,
                    0.42674389481544495,
                    0.10951212793588638,
                    1
                ],
                "metallicFactor" : 0,
                "roughnessFactor" : 0.5
            }
        },
        {
            "doubleSided" : true,
            "name" : "Material.010",
            "pbrMetallicRoughness" : {
                "baseColorFactor" : [
                    0.8000000715255737,
                    0.007032439112663269,
                    0.0798071026802063,
                    1
                ],
                "metallicFactor" : 0,
                "roughnessFactor" : 0.5
            }
        },
        {
            "doubleSided" : true,
            "name" : "Material.011",
            "pbrMetallicRoughness" : {
                "baseColorFactor" : [
                    0.7089658379554749,
                    0.7234058976173401,
                    0.8000000715255737,
                    1
                ],
                "metallicFactor" : 0,
                "roughnessFactor" : 0.5
            }
        }
    ],
    "meshes" : [
        {
            "name" : "Plane.008",
            "primitives" : [
                {
                    "attributes" : {
                        "POSITION" : 0,
                        "NORMAL" : 1,
                        "TEXCOORD_0" : 2
                    },
                    "indices" : 3,
                    "material" : 0
                }
            ]
        },
        {
            "name" : "Plane.007",
            "primitives" : [
                {
                    "attributes" : {
                        "POSITION" : 4,
                        "NORMAL" : 5,
                        "TEXCOORD_0" : 6
                    },
                    "indices" : 7,
                    "material" : 1
                }
            ]
        },
        {
            "name" : "Plane.001",
            "primitives" : [
                {
                    "attributes" : {
                        "POSITION" : 8,
                        "NORMAL" : 9,
                        "TEXCOORD_0" : 10
                    },
                    "indices" : 11,
                    "material" : 2
                }
            ]
        },
        {
            "name" : "Plane",
            "primitives" : [
                {
                    "attributes" : {
                        "POSITION" : 12,
                        "NORMAL" : 13,
                        "TEXCOORD_0" : 14
                    },
                    "indices" : 15,
                    "material" : 3
                }
            ]
        },
        {
            "name" : "Plane.004",
            "primitives" : [
                {
                    "attributes" : {
                        "POSITION" : 16,
                        "NORMAL" : 17,
                        "TEXCOORD_0" : 18
                    },
                    "indices" : 19,
                    "material" : 4
                }
            ]
        },
        {
            "name" : "Torus",
            "primitives" : [
                {
                    "attributes" : {
                        "POSITION" : 20,
                        "NORMAL" : 21,
                        "TEXCOORD_0" : 22
                    },
                    "indices" : 23,
                    "material" : 5
                },
                {
                    "attributes" : {
                        "POSITION" : 24,
                        "NORMAL" : 25,
                        "TEXCOORD_0" : 26
                    },
                    "indices" : 27,
                    "material" : 6
                }
            ]
        }
    ],
    "accessors" : [
        {
            "bufferView" : 0,
            "componentType" : 5126,
            "count" : 2097,
            "max" : [
                19.726547241210938,
                5.499953269958496,
                36.592742919921875
            ],
            "min" : [
                -24.369613647460938,
                -0.0394873172044754,
                -72.36491394042969
            ],
            "type" : "VEC3"
        },
        {
            "bufferView" : 1,
            "componentType" : 5126,
            "count" : 2097,
            "type" : "VEC3"
        },
        {
            "bufferView" : 2,
            "componentType" : 5126,
            "count" : 2097,
            "type" : "VEC2"
        },
        {
            "bufferView" : 3,
            "componentType" : 5123,
            "count" : 3522,
            "type" : "SCALAR"
        },
        {
            "bufferView" : 4,
            "componentType" : 5126,
            "count" : 483,
            "max" : [
                18.726543426513672,
                4.999953269958496,
                35.59273910522461
            ],
            "min" : [
                -22.934329986572266,
                -0.0394873172044754,
                -71.40006256103516
            ],
            "type" : "VEC3"
        },
        {
            "bufferView" : 5,
            "componentType" : 5126,
            "count" : 483,
            "type" : "VEC3"
        },
        {
            "bufferView" : 6,
            "componentType" : 5126,
            "count" : 483,
            "type" : "VEC2"
        },
        {
            "bufferView" : 7,
            "componentType" : 5123,
            "count" : 891,
            "type" : "SCALAR"
        },
        {
            "bufferView" : 8,
            "componentType" : 5126,
            "count" : 5507,
            "max" : [
                19.726547241210938,
                5.499953269958496,
                36.592742919921875
            ],
            "min" : [
                -24.369613647460938,
                -0.7296527624130249,
                -72.36491394042969
            ],
            "type" : "VEC3"
        },
        {
            "bufferView" : 9,
            "componentType" : 5126,
            "count" : 5507,
            "type" : "VEC3"
        },
        {
            "bufferView" : 10,
            "componentType" : 5126,
            "count" : 5507,
            "type" : "VEC2"
        },
        {
            "bufferView" : 11,
            "componentType" : 5123,
            "count" : 8610,
            "type" : "SCALAR"
        },
        {
            "bufferView" : 12,
            "componentType" : 5126,
            "count" : 4,
            "max" : [
                500,
                0,
                500
            ],
            "min" : [
                -500,
                0,
                -500
            ],
            "type" : "VEC3"
        },
        {
            "bufferView" : 13,
            "componentType" : 5126,
            "count" : 4,
            "type" : "VEC3"
        },
        {
            "bufferView" : 14,
            "componentType" : 5126,
            "count" : 4,
            "type" : "VEC2"
        },
        {
            "bufferView" : 15,
            "componentType" : 5123,
            "count" : 6,
            "type" : "SCALAR"
        },
        {
            "bufferView" : 16,
            "componentType" : 5126,
            "count" : 1146,
            "max" : [
                80,
                0.21445214748382568,
                80
            ],
            "min" : [
                -80,
                -20.75417709350586,
                -80
            ],
            "type" : "VEC3"
        },
        {
            "bufferView" : 17,
            "componentType" : 5126,
            "count" : 1146,
            "type" : "VEC3"
        },
        {
            "bufferView" : 18,
            "componentType" : 5126,
            "count" : 1146,
            "type" : "VEC2"
        },
        {
            "bufferView" : 19,
            "componentType" : 5123,
            "count" : 1188,
            "type" : "SCALAR"
        },
        {
            "bufferView" : 20,
            "componentType" : 5126,
            "count" : 1592,
            "max" : [
                1.25,
                0.25,
                1.25
            ],
            "min" : [
                -1.25,
                -0.25,
                -1.25
            ],
            "type" : "VEC3"
        },
        {
            "bufferView" : 21,
            "componentType" : 5126,
            "count" : 1592,
            "type" : "VEC3"
        },
        {
            "bufferView" : 22,
            "componentType" : 5126,
            "count" : 1592,
            "type" : "VEC2"
        },
        {
            "bufferView" : 23,
            "componentType" : 5123,
            "count" : 2388,
            "type" : "SCALAR"
        },
        {
            "bufferView" : 24,
            "componentType" : 5126,
            "count" : 712,
            "max" : [
                1.206099033355713,
                0.25,
                1.239306092262268
            ],
            "min" : [
                -1.25,
                -0.25,
                -1.25
            ],
            "type" : "VEC3"
        },
        {
            "bufferView" : 25,
            "componentType" : 5126,
            "count" : 712,
            "type" : "VEC3"
        },
        {
            "bufferView" : 26,
            "componentType" : 5126,
            "count" : 712,
            "type" : "VEC2"
        },
        {
            "bufferView" : 27,
            "componentType" : 5123,
            "count" : 1068,
            "type" : "SCALAR"
        }
    ],
    "bufferViews" : [
        {
            "buffer" : 0,
            "byteLength" : 25164,
            "byteOffset" : 0
        },
        {
            "buffer" : 0,
            "byteLength" : 25164,
            "byteOffset" : 25164
        },
        {
            "buffer" : 0,
            "byteLength" : 16776,
            "byteOffset" : 50328
        },
        {
            "buffer" : 0,
            "byteLength" : 7044,
            "byteOffset" : 67104
        },
        {
            "buffer" : 0,
            "byteLength" : 5796,
            "byteOffset" : 74148
        },
        {
            "buffer" : 0,
            "byteLength" : 5796,
            "byteOffset" : 79944
        },
        {
            "buffer" : 0,
            "byteLength" : 3864,
            "byteOffset" : 85740
        },
        {
            "buffer" : 0,
            "byteLength" : 1782,
            "byteOffset" : 89604
        },
        {
            "buffer" : 0,
            "byteLength" : 66084,
            "byteOffset" : 91388
        },
        {
            "buffer" : 0,
            "byteLength" : 66084,
            "byteOffset" : 157472
        },
        {
            "buffer" : 0,
            "byteLength" : 44056,
            "byteOffset" : 223556
        },
        {
            "buffer" : 0,
            "byteLength" : 17220,
            "byteOffset" : 267612
        },
        {
            "buffer" : 0,
            "byteLength" : 48,
            "byteOffset" : 284832
        },
        {
            "buffer" : 0,
            "byteLength" : 48,
            "byteOffset" : 284880
        },
        {
            "buffer" : 0,
            "byteLength" : 32,
            "byteOffset" : 284928
        },
        {
            "buffer" : 0,
            "byteLength" : 12,
            "byteOffset" : 284960
        },
        {
            "buffer" : 0,
            "byteLength" : 13752,
            "byteOffset" : 284972
        },
        {
            "buffer" : 0,
            "byteLength" : 13752,
            "byteOffset" : 298724
        },
        {
            "buffer" : 0,
            "byteLength" : 9168,
            "byteOffset" : 312476
        },
        {
            "buffer" : 0,
            "byteLength" : 2376,
            "byteOffset" : 321644
        },
        {
            "buffer" : 0,
            "byteLength" : 19104,
            "byteOffset" : 324020
        },
        {
            "buffer" : 0,
            "byteLength" : 19104,
            "byteOffset" : 343124
        },
        {
            "buffer" : 0,
            "byteLength" : 12736,
            "byteOffset" : 362228
        },
        {
            "buffer" : 0,
            "byteLength" : 4776,
            "byteOffset" : 374964
        },
        {
            "buffer" : 0,
            "byteLength" : 8544,
            "byteOffset" : 379740
        },
        {
            "buffer" : 0,
            "byteLength" : 8544,
            "byteOffset" : 388284
        },
        {
            "buffer" : 0,
            "byteLength" : 5696,
            "byteOffset" : 396828
        },
        {
            "buffer" : 0,
            "byteLength" : 2136,
            "byteOffset" : 402524
        }
    ],
    "buffers" : [
        {
            "byteLength" : 404660,
            "uri" : "data:application/octet-stream;base64,"
        }
    ]
}
