{
    "asset" : {
        "generator" : "Khronos glTF Blender I/O v1.7.33",
        "version" : "2.0"
    },
    "scene" : 0,
    "scenes" : [
        {
            "name" : "Scene",
            "nodes" : [
                0,
                1,
                2,
                3,
                4
            ]
        }
    ],
    "nodes" : [
        {
            "mesh" : 0,
            "name" : "Track without solid"
        },
        {
            "mesh" : 1,
            "name" : "Road"
        },
        {
            "name" : "Path as Mesh"
        },
        {
            "name" : "Path"
        },
        {
            "mesh" : 2,
            "name" : "Track Solid"
        }
    ],
    "materials" : [
        {
            "doubleSided" : true,
            "name" : "Material.002",
            "pbrMetallicRoughness" : {
                "metallicFactor" : 0,
                "roughnessFactor" : 0.5
            }
        },
        {
            "doubleSided" : true,
            "name" : "Material.001",
            "pbrMetallicRoughness" : {
                "metallicFactor" : 0,
                "roughnessFactor" : 0.5
            }
        }
    ],
    "meshes" : [
        {
            "name" : "Plane.008",
            "primitives" : [
                {
                    "attributes" : {
                        "POSITION" : 0,
                        "NORMAL" : 1,
                        "TEXCOORD_0" : 2
                    },
                    "indices" : 3,
                    "material" : 0
                }
            ]
        },
        {
            "name" : "Plane.001",
            "primitives" : [
                {
                    "attributes" : {
                        "POSITION" : 4,
                        "NORMAL" : 5,
                        "TEXCOORD_0" : 6
                    },
                    "indices" : 7,
                    "material" : 0
                }
            ]
        },
        {
            "name" : "Plane.006",
            "primitives" : [
                {
                    "attributes" : {
                        "POSITION" : 8,
                        "NORMAL" : 9,
                        "TEXCOORD_0" : 10
                    },
                    "indices" : 11,
                    "material" : 1
                }
            ]
        }
    ],
    "accessors" : [
        {
            "bufferView" : 0,
            "componentType" : 5126,
            "count" : 2148,
            "max" : [
                19.726547241210938,
                5.499953269958496,
                36.592742919921875
            ],
            "min" : [
                -24.369613647460938,
                -0.06549662351608276,
                -72.36491394042969
            ],
            "type" : "VEC3"
        },
        {
            "bufferView" : 1,
            "componentType" : 5126,
            "count" : 2148,
            "type" : "VEC3"
        },
        {
            "bufferView" : 2,
            "componentType" : 5126,
            "count" : 2148,
            "type" : "VEC2"
        },
        {
            "bufferView" : 3,
            "componentType" : 5123,
            "count" : 3663,
            "type" : "SCALAR"
        },
        {
            "bufferView" : 4,
            "componentType" : 5126,
            "count" : 520,
            "max" : [
                18.726543426513672,
                4.999953269958496,
                35.59273910522461
            ],
            "min" : [
                -23.438539505004883,
                -0.06549662351608276,
                -71.40006256103516
            ],
            "type" : "VEC3"
        },
        {
            "bufferView" : 5,
            "componentType" : 5126,
            "count" : 520,
            "type" : "VEC3"
        },
        {
            "bufferView" : 6,
            "componentType" : 5126,
            "count" : 520,
            "type" : "VEC2"
        },
        {
            "bufferView" : 7,
            "componentType" : 5123,
            "count" : 1002,
            "type" : "SCALAR"
        },
        {
            "bufferView" : 8,
            "componentType" : 5126,
            "count" : 5599,
            "max" : [
                19.726547241210938,
                5.499953269958496,
                36.592742919921875
            ],
            "min" : [
                -24.369613647460938,
                -0.7630612254142761,
                -72.36491394042969
            ],
            "type" : "VEC3"
        },
        {
            "bufferView" : 9,
            "componentType" : 5126,
            "count" : 5599,
            "type" : "VEC3"
        },
        {
            "bufferView" : 10,
            "componentType" : 5126,
            "count" : 5599,
            "type" : "VEC2"
        },
        {
            "bufferView" : 11,
            "componentType" : 5123,
            "count" : 8850,
            "type" : "SCALAR"
        }
    ],
    "bufferViews" : [
        {
            "buffer" : 0,
            "byteLength" : 25776,
            "byteOffset" : 0
        },
        {
            "buffer" : 0,
            "byteLength" : 25776,
            "byteOffset" : 25776
        },
        {
            "buffer" : 0,
            "byteLength" : 17184,
            "byteOffset" : 51552
        },
        {
            "buffer" : 0,
            "byteLength" : 7326,
            "byteOffset" : 68736
        },
        {
            "buffer" : 0,
            "byteLength" : 6240,
            "byteOffset" : 76064
        },
        {
            "buffer" : 0,
            "byteLength" : 6240,
            "byteOffset" : 82304
        },
        {
            "buffer" : 0,
            "byteLength" : 4160,
            "byteOffset" : 88544
        },
        {
            "buffer" : 0,
            "byteLength" : 2004,
            "byteOffset" : 92704
        },
        {
            "buffer" : 0,
            "byteLength" : 67188,
            "byteOffset" : 94708
        },
        {
            "buffer" : 0,
            "byteLength" : 67188,
            "byteOffset" : 161896
        },
        {
            "buffer" : 0,
            "byteLength" : 44792,
            "byteOffset" : 229084
        },
        {
            "buffer" : 0,
            "byteLength" : 17700,
            "byteOffset" : 273876
        }
    ],
    "buffers" : [
        {
            "byteLength" : 291576,
            "uri" : "first.bin"
        }
    ]
}
