{
    "asset" : {
        "generator" : "Khronos glTF Blender I/O v1.7.33",
        "version" : "2.0"
    },
    "scene" : 0,
    "scenes" : [
        {
            "name" : "Scene",
            "nodes" : [
                0,
                1,
                2
            ]
        }
    ],
    "nodes" : [
        {
            "mesh" : 0,
            "name" : "Track Solid"
        },
        {
            "mesh" : 1,
            "name" : "Road"
        },
        {
            "mesh" : 2,
            "name" : "Track without solid"
        }
    ],
    "materials" : [
        {
            "doubleSided" : true,
            "name" : "Material.001",
            "pbrMetallicRoughness" : {
                "metallicFactor" : 0,
                "roughnessFactor" : 0.5
            }
        },
        {
            "doubleSided" : true,
            "name" : "Material.002",
            "pbrMetallicRoughness" : {
                "metallicFactor" : 0,
                "roughnessFactor" : 0.5
            }
        }
    ],
    "meshes" : [
        {
            "name" : "Plane.001",
            "primitives" : [
                {
                    "attributes" : {
                        "POSITION" : 0,
                        "NORMAL" : 1,
                        "TEXCOORD_0" : 2
                    },
                    "indices" : 3,
                    "material" : 0
                }
            ]
        },
        {
            "name" : "Plane.004",
            "primitives" : [
                {
                    "attributes" : {
                        "POSITION" : 4,
                        "NORMAL" : 5,
                        "TEXCOORD_0" : 6
                    },
                    "indices" : 7,
                    "material" : 0
                }
            ]
        },
        {
            "name" : "Plane.005",
            "primitives" : [
                {
                    "attributes" : {
                        "POSITION" : 8,
                        "NORMAL" : 9,
                        "TEXCOORD_0" : 10
                    },
                    "indices" : 11,
                    "material" : 1
                }
            ]
        }
    ],
    "accessors" : [
        {
            "bufferView" : 0,
            "componentType" : 5126,
            "count" : 5826,
            "max" : [
                19.726547241210938,
                5.499953269958496,
                36.592742919921875
            ],
            "min" : [
                -24.369613647460938,
                -0.7696502208709717,
                -72.36491394042969
            ],
            "type" : "VEC3"
        },
        {
            "bufferView" : 1,
            "componentType" : 5126,
            "count" : 5826,
            "type" : "VEC3"
        },
        {
            "bufferView" : 2,
            "componentType" : 5126,
            "count" : 5826,
            "type" : "VEC2"
        },
        {
            "bufferView" : 3,
            "componentType" : 5123,
            "count" : 9378,
            "type" : "SCALAR"
        },
        {
            "bufferView" : 4,
            "componentType" : 5126,
            "count" : 460,
            "max" : [
                18.726543426513672,
                4.999953269958496,
                35.59273910522461
            ],
            "min" : [
                -22.934329986572266,
                -0.06549662351608276,
                -71.40006256103516
            ],
            "type" : "VEC3"
        },
        {
            "bufferView" : 5,
            "componentType" : 5126,
            "count" : 460,
            "type" : "VEC3"
        },
        {
            "bufferView" : 6,
            "componentType" : 5126,
            "count" : 460,
            "type" : "VEC2"
        },
        {
            "bufferView" : 7,
            "componentType" : 5123,
            "count" : 906,
            "type" : "SCALAR"
        },
        {
            "bufferView" : 8,
            "componentType" : 5126,
            "count" : 2248,
            "max" : [
                19.726547241210938,
                5.499953269958496,
                36.592742919921875
            ],
            "min" : [
                -24.369613647460938,
                -0.06549662351608276,
                -72.36491394042969
            ],
            "type" : "VEC3"
        },
        {
            "bufferView" : 9,
            "componentType" : 5126,
            "count" : 2248,
            "type" : "VEC3"
        },
        {
            "bufferView" : 10,
            "componentType" : 5126,
            "count" : 2248,
            "type" : "VEC2"
        },
        {
            "bufferView" : 11,
            "componentType" : 5123,
            "count" : 3924,
            "type" : "SCALAR"
        }
    ],
    "bufferViews" : [
        {
            "buffer" : 0,
            "byteLength" : 69912,
            "byteOffset" : 0
        },
        {
            "buffer" : 0,
            "byteLength" : 69912,
            "byteOffset" : 69912
        },
        {
            "buffer" : 0,
            "byteLength" : 46608,
            "byteOffset" : 139824
        },
        {
            "buffer" : 0,
            "byteLength" : 18756,
            "byteOffset" : 186432
        },
        {
            "buffer" : 0,
            "byteLength" : 5520,
            "byteOffset" : 205188
        },
        {
            "buffer" : 0,
            "byteLength" : 5520,
            "byteOffset" : 210708
        },
        {
            "buffer" : 0,
            "byteLength" : 3680,
            "byteOffset" : 216228
        },
        {
            "buffer" : 0,
            "byteLength" : 1812,
            "byteOffset" : 219908
        },
        {
            "buffer" : 0,
            "byteLength" : 26976,
            "byteOffset" : 221720
        },
        {
            "buffer" : 0,
            "byteLength" : 26976,
            "byteOffset" : 248696
        },
        {
            "buffer" : 0,
            "byteLength" : 17984,
            "byteOffset" : 275672
        },
        {
            "buffer" : 0,
            "byteLength" : 7848,
            "byteOffset" : 293656
        }
    ],
    "buffers" : [
        {
            "byteLength" : 301504,
            "uri" : "first.bin"
        }
    ]
}
